<?xml version="1.0" encoding="UTF-8"?>
<svg width="1376px" height="851px" viewBox="0 0 1376 851" xmlns="http://www.w3.org/2000/svg" xmlns:xlink="http://www.w3.org/1999/xlink" version="1.1">
 <!-- Generated by Pixelmator Pro 2.1.5 -->
 <path id="Path" d="M626.609 305 C626.609 422.637 531.246 518 413.609 518 295.972 518 200.609 422.637 200.609 305 200.609 187.363 295.972 92 413.609 92 531.246 92 626.609 187.363 626.609 305 Z" fill="#f2f2f2" fill-opacity="1" stroke="none"/>
 <path id="Path-1" d="M121 143.142 C121 220.64 169.618 283.351 229.701 283.351" fill="#2f2e41" fill-opacity="1" stroke="none"/>
 <path id="Path-2" d="M229.701 283.351 C229.701 204.982 283.956 141.567 351.004 141.567" fill="#ffb442" fill-opacity="1" stroke="none"/>
 <path id="Path-3" d="M160.384 150.168 C160.384 223.782 191.387 283.351 229.701 283.351" fill="#ffb442" fill-opacity="1" stroke="none"/>
 <path id="Path-4" d="M229.701 283.351 C229.701 183.213 292.411 102.183 369.909 102.183" fill="#2f2e41" fill-opacity="1" stroke="none"/>
 <path id="Path-5" d="M206.833 284.339 C206.833 284.339 222.248 283.864 226.894 280.556 231.54 277.248 250.607 273.298 251.76 278.603 252.912 283.909 274.927 304.992 257.522 305.132 240.118 305.272 217.083 302.421 212.446 299.596 207.809 296.772 206.833 284.339 206.833 284.339 Z" fill="#a8a8a8" fill-opacity="1" stroke="none"/>
 <path id="Path-6" d="M257.833 303.285 C240.429 303.425 217.394 300.574 212.757 297.749 209.226 295.598 207.818 287.88 207.348 284.319 207.022 284.333 206.833 284.339 206.833 284.339 206.833 284.339 207.809 296.772 212.446 299.596 217.083 302.421 240.118 305.272 257.523 305.132 262.546 305.091 264.282 303.304 264.186 300.656 263.488 302.256 261.572 303.255 257.833 303.285 Z" fill="#000000" fill-opacity="1" stroke="none"/>
 <path id="Path-7" d="M506.609 516.5 C506.609 530.55 422.886 541.94 319.609 541.94 216.332 541.94 132.609 530.55 132.609 516.5 132.609 502.45 216.332 491.06 319.609 491.06 422.886 491.06 506.609 502.45 506.609 516.5 Z" fill="#3f3d56" fill-opacity="1" stroke="none"/>
 <path id="Path-8" d="M476.609 516.5 C476.609 528.296 406.318 537.859 319.609 537.859 232.9 537.859 162.609 528.296 162.609 516.5 162.609 504.704 232.9 495.141 319.609 495.141 406.318 495.141 476.609 504.704 476.609 516.5 Z" fill="#000000" fill-opacity="1" stroke="none"/>
 <path id="Path-9" d="M1240.609 752.5 C1240.609 773.763 1113.906 791 957.609 791 801.313 791 674.609 773.763 674.609 752.5 674.609 731.237 801.313 714 957.609 714 1113.906 714 1240.609 731.237 1240.609 752.5 Z" fill="#3f3d56" fill-opacity="1" stroke="none"/>
 <path id="Path-10" d="M601.609 737.5 C601.609 750.273 525.498 760.627 431.609 760.627 337.721 760.627 261.609 750.273 261.609 737.5 261.609 724.727 337.721 714.373 431.609 714.373 525.498 714.373 601.609 724.727 601.609 737.5 Z" fill="#3f3d56" fill-opacity="1" stroke="none"/>
 <path id="Path-11" d="M899.705 655.24 L891.827 705.535 C891.827 705.535 853.045 726.138 880.314 726.744 907.582 727.35 1036.047 726.744 1036.047 726.744 1036.047 726.744 1060.892 726.744 1021.504 704.929 L1013.626 652.21 Z" fill="#2f2e41" fill-opacity="1" stroke="none"/>
 <path id="Path-12" d="M874.828 726.198 C881.021 720.688 891.827 714.946 891.827 714.946 L899.705 664.651 1013.626 664.758 1021.504 714.34 C1030.689 719.427 1036.379 723.327 1039.707 726.318 1044.766 725.164 1050.295 720.875 1021.504 704.929 L1013.626 652.21 899.705 655.24 891.827 705.535 C891.827 705.535 859.239 722.85 874.828 726.198 Z" fill="#000000" fill-opacity="1" stroke="none"/>
 <path id="Path-13" d="M1212.686 483.449 L1212.686 644.163 C1212.686 654.129 1204.607 662.208 1194.64 662.208 L717.479 662.208 C707.512 662.208 699.433 654.129 699.433 644.163 L699.433 322.734 C699.433 312.768 707.512 304.689 717.479 304.689 L1194.64 304.689 C1204.607 304.689 1212.686 312.768 1212.686 322.734 Z" fill="#2f2e41" fill-opacity="1" stroke="none"/>
 <path id="Path-14" d="M716.703 323.776 L1195.416 323.776 1195.416 591.613 716.703 591.613 Z" fill="#3f3d56" fill-opacity="1" stroke="none"/>
 <path id="Path-15" d="M959.089 315.293 C959.089 316.966 957.733 318.323 956.06 318.323 954.386 318.323 953.03 316.966 953.03 315.293 953.03 313.62 954.386 312.263 956.06 312.263 957.733 312.263 959.089 313.62 959.089 315.293 Z" fill="#f2f2f2" fill-opacity="1" stroke="none"/>
 <path id="Path-16" d="M1212.686 612.822 L1212.686 644.163 C1212.686 648.951 1210.784 653.541 1207.4 656.925 1204.015 660.309 1199.424 662.21 1194.638 662.208 L717.479 662.208 C712.693 662.209 708.102 660.308 704.718 656.924 701.333 653.539 699.432 648.949 699.433 644.163 L699.433 612.822 Z" fill="#2f2e41" fill-opacity="1" stroke="none"/>
 <path id="Path-17" d="M1089.978 759.466 L1089.978 765.526 763.968 765.526 763.968 760.678 764.417 759.466 772.452 737.651 1083.312 737.651 Z" fill="#2f2e41" fill-opacity="1" stroke="none"/>
 <path id="Path-18" d="M1215.437 753.534 C1214.843 756.073 1212.601 758.751 1207.535 761.284 1189.356 770.373 1152.392 758.86 1152.392 758.86 1152.392 758.86 1123.912 754.012 1123.912 741.287 1124.712 740.739 1125.546 740.244 1126.409 739.802 1134.052 735.759 1159.393 725.781 1204.326 740.225 1207.637 741.264 1210.594 743.202 1212.867 745.822 1214.688 747.954 1216.116 750.657 1215.437 753.534 Z" fill="#2f2e41" fill-opacity="1" stroke="none"/>
 <path id="Path-19" d="M1215.437 753.534 C1193.186 762.06 1173.353 762.696 1152.998 748.559 1142.733 741.432 1133.408 739.669 1126.409 739.802 1134.052 735.759 1159.393 725.781 1204.326 740.225 1207.637 741.264 1210.593 743.202 1212.867 745.822 1214.688 747.953 1216.116 750.657 1215.437 753.534 Z" fill="#000000" fill-opacity="1" stroke="none"/>
 <path id="Path-20" d="M1195.416 746.135 C1195.416 747.473 1191.889 748.559 1187.538 748.559 1183.188 748.559 1179.661 747.473 1179.661 746.135 1179.661 744.796 1183.188 743.711 1187.538 743.711 1191.889 743.711 1195.416 744.796 1195.416 746.135 Z" fill="#f2f2f2" fill-opacity="1" stroke="none"/>
 <path id="Path-21" d="M967.573 637.667 C967.573 644.026 962.418 649.18 956.06 649.18 949.701 649.18 944.546 644.026 944.546 637.667 944.546 631.308 949.701 626.154 956.06 626.154 962.418 626.154 967.573 631.308 967.573 637.667 Z" fill="#f2f2f2" fill-opacity="1" stroke="none"/>
 <path id="Path-22" d="M1089.978 759.466 L1089.978 765.526 763.968 765.526 763.968 760.678 764.417 759.466 Z" fill="#000000" fill-opacity="1" stroke="none"/>
 <path id="Path-23" d="M229.609 251 L437.609 251 437.609 493 229.609 493 Z" fill="#2f2e41" fill-opacity="1" stroke="none"/>
 <path id="Path-24" d="M208.609 227 L458.609 227 458.609 313 208.609 313 Z" fill="#3f3d56" fill-opacity="1" stroke="none"/>
 <path id="Path-25" d="M208.609 329 L458.609 329 458.609 415 208.609 415 Z" fill="#3f3d56" fill-opacity="1" stroke="none"/>
 <path id="Path-26" d="M208.609 431 L458.609 431 458.609 517 208.609 517 Z" fill="#3f3d56" fill-opacity="1" stroke="none"/>
 <path id="Path-27" d="M392.609 242 L408.609 242 408.609 258 392.609 258 Z" fill="#ffb442" fill-opacity="1" stroke="none"/>
 <path id="Path-28" d="M415.609 242 L431.609 242 431.609 258 415.609 258 Z" fill="#ffb442" fill-opacity="1" stroke="none"/>
 <path id="Path-29" d="M438.609 242 L454.609 242 454.609 258 438.609 258 Z" fill="#ffb442" fill-opacity="1" stroke="none"/>
 <path id="Path-30" d="M392.609 343 L408.609 343 408.609 359 392.609 359 Z" fill="#ffb442" fill-opacity="1" stroke="none"/>
 <path id="Path-31" d="M415.609 343 L431.609 343 431.609 359 415.609 359 Z" fill="#ffb442" fill-opacity="1" stroke="none"/>
 <path id="Path-32" d="M438.609 343 L454.609 343 454.609 359 438.609 359 Z" fill="#ffb442" fill-opacity="1" stroke="none"/>
 <path id="Path-33" d="M392.609 444 L408.609 444 408.609 460 392.609 460 Z" fill="#ffb442" fill-opacity="1" stroke="none"/>
 <path id="Path-34" d="M415.609 444 L431.609 444 431.609 460 415.609 460 Z" fill="#ffb442" fill-opacity="1" stroke="none"/>
 <path id="Path-35" d="M438.609 444 L454.609 444 454.609 460 438.609 460 Z" fill="#ffb442" fill-opacity="1" stroke="none"/>
 <path id="Path-36" d="M516.609 630 C516.609 673.63 481.24 709 437.609 709 393.979 709 358.609 673.63 358.609 630 358.609 586.37 393.979 551 437.609 551 481.24 551 516.609 586.37 516.609 630 Z" fill="#2f2e41" fill-opacity="1" stroke="none"/>
 <path id="Path-37" d="M401.609 692 L425.609 692 425.609 735 401.609 735 Z" fill="#2f2e41" fill-opacity="1" stroke="none"/>
 <path id="Path-38" d="M449.609 692 L473.609 692 473.609 735 449.609 735 Z" fill="#2f2e41" fill-opacity="1" stroke="none"/>
 <path id="Path-39" d="M441.609 735.5 C441.609 739.642 432.655 743 421.609 743 410.563 743 401.609 739.642 401.609 735.5 401.609 731.358 410.563 728 421.609 728 432.655 728 441.609 731.358 441.609 735.5 Z" fill="#2f2e41" fill-opacity="1" stroke="none"/>
 <path id="Path-40" d="M489.609 734.5 C489.609 738.642 480.655 742 469.609 742 458.563 742 449.609 738.642 449.609 734.5 449.609 730.358 458.563 727 469.609 727 480.655 727 489.609 730.358 489.609 734.5 Z" fill="#2f2e41" fill-opacity="1" stroke="none"/>
 <path id="Path-41" d="M466.609 610 C466.609 624.912 454.521 637 439.609 637 424.697 637 412.609 624.912 412.609 610 412.609 595.088 424.697 583 439.609 583 454.521 583 466.609 595.088 466.609 610 Z" fill="#ffffff" fill-opacity="1" stroke="none"/>
 <path id="Path-42" d="M448.609 610 C448.609 614.971 444.58 619 439.609 619 434.639 619 430.609 614.971 430.609 610 430.609 605.029 434.639 601 439.609 601 444.58 601 448.609 605.029 448.609 610 Z" fill="#3f3d56" fill-opacity="1" stroke="none"/>
 <path id="Path-43" d="M360.976 556.532 C354.598 527.965 374.988 499.098 406.52 492.058 438.053 485.017 468.786 502.468 475.164 531.035 481.543 559.603 460.646 570.139 429.114 577.18 397.582 584.221 367.355 585.1 360.976 556.532 Z" fill="#ffb442" fill-opacity="1" stroke="none"/>
 <path id="Path-44" d="M543.138 587.301 C545.833 593.597 531.759 605.66 511.703 614.244 491.648 622.827 473.205 624.682 470.511 618.386 467.816 612.09 481.889 600.028 501.945 591.444 522 582.86 540.443 581.005 543.138 587.301 Z" fill="#2f2e41" fill-opacity="1" stroke="none"/>
 <path id="Path-45" d="M395.138 640.301 C397.833 646.597 383.759 658.66 363.703 667.244 343.648 675.828 325.205 677.682 322.511 671.386 319.816 665.09 333.889 653.028 353.945 644.444 374 635.86 392.443 634.005 395.138 640.301 Z" fill="#2f2e41" fill-opacity="1" stroke="none"/>
 <path id="Path-46" d="M483.609 653 C483.609 660.732 463.701 676 441.609 676 419.518 676 398.609 661.732 398.609 654 398.609 646.268 419.518 648 441.609 648 463.701 648 483.609 645.268 483.609 653 Z" fill="#ffffff" fill-opacity="1" stroke="none"/>
</svg>
